<svg width="138" height="138" viewBox="0 0 138 138" fill="none" xmlns="http://www.w3.org/2000/svg">
<rect width="138" height="138" rx="20" fill="#C8C197"/>
<g filter="url(#filter0_d_15_32)">
<path d="M48.7196 29.9636C47.8711 30.6707 47.7564 31.9318 48.4636 32.7804C49.1707 33.6289 50.4318 33.7436 51.2804 33.0364L48.7196 29.9636ZM53.2351 24.9405L51.2948 25.4256L53.2351 24.9405ZM43.423 27.0494L43.9745 25.1193L40.1284 24.0205L39.577 25.9506L43.423 27.0494ZM45.0687 23.2597L45.1913 23.1371L42.3629 20.3087L42.2403 20.4313L45.0687 23.2597ZM47.9366 22H48.3684V18H47.9366V22ZM50.9405 24.0082L51.2948 25.4256L55.1754 24.4554L54.8211 23.0381L50.9405 24.0082ZM50.2222 28.7114L48.7196 29.9636L51.2804 33.0364L52.7829 31.7843L50.2222 28.7114ZM51.3477 26.7485C51.2197 27.5165 50.8203 28.213 50.2222 28.7114L52.7829 31.7843C54.117 30.6726 55.0078 29.119 55.2932 27.4061L51.3477 26.7485ZM51.2948 25.4256C51.403 25.8582 51.421 26.3085 51.3477 26.7485L55.2932 27.4061C55.4568 26.4248 55.4167 25.4205 55.1754 24.4554L51.2948 25.4256ZM50.0246 22.581C50.4779 22.9436 50.7997 23.445 50.9405 24.0082L54.8211 23.0381C54.4678 21.6252 53.6607 20.3673 52.5234 19.4575L50.0246 22.581ZM48.3684 22C48.9705 22 49.5545 22.2049 50.0246 22.581L52.5234 19.4575C51.3441 18.514 49.8787 18 48.3684 18V22ZM45.1913 23.1371C45.9194 22.409 46.9069 22 47.9366 22V18C45.846 18 43.8411 18.8305 42.3629 20.3087L45.1913 23.1371ZM43.9745 25.1193C44.1753 24.4166 44.5519 23.7765 45.0687 23.2597L42.2403 20.4313C41.2428 21.4288 40.516 22.6641 40.1284 24.0205L43.9745 25.1193Z" fill="#26280D"/>
<path d="M68.7196 29.9636C67.8711 30.6707 67.7564 31.9318 68.4636 32.7804C69.1707 33.6289 70.4318 33.7436 71.2804 33.0364L68.7196 29.9636ZM73.2351 24.9405L71.2948 25.4256L73.2351 24.9405ZM63.423 27.0494L63.9745 25.1193L60.1284 24.0205L59.577 25.9506L63.423 27.0494ZM65.0687 23.2597L65.1913 23.1371L62.3629 20.3087L62.2403 20.4313L65.0687 23.2597ZM67.9366 22H68.3684V18H67.9366V22ZM70.9405 24.0082L71.2948 25.4256L75.1754 24.4554L74.8211 23.0381L70.9405 24.0082ZM70.2222 28.7114L68.7196 29.9636L71.2804 33.0364L72.7829 31.7843L70.2222 28.7114ZM71.3477 26.7485C71.2197 27.5165 70.8203 28.213 70.2222 28.7114L72.7829 31.7843C74.117 30.6726 75.0078 29.119 75.2932 27.4061L71.3477 26.7485ZM71.2948 25.4256C71.403 25.8582 71.421 26.3085 71.3477 26.7485L75.2932 27.4061C75.4568 26.4248 75.4167 25.4205 75.1754 24.4554L71.2948 25.4256ZM70.0246 22.581C70.4779 22.9436 70.7997 23.445 70.9405 24.0082L74.8211 23.0381C74.4678 21.6252 73.6607 20.3673 72.5234 19.4575L70.0246 22.581ZM68.3684 22C68.9705 22 69.5545 22.2049 70.0246 22.581L72.5234 19.4575C71.3441 18.514 69.8787 18 68.3684 18V22ZM65.1913 23.1371C65.9194 22.409 66.9069 22 67.9366 22V18C65.846 18 63.8411 18.8305 62.3629 20.3087L65.1913 23.1371ZM63.9745 25.1193C64.1753 24.4166 64.5519 23.7765 65.0687 23.2597L62.2403 20.4313C61.2428 21.4288 60.516 22.6641 60.1284 24.0205L63.9745 25.1193Z" fill="#26280D"/>
<path d="M88.7196 29.9636C87.8711 30.6707 87.7564 31.9318 88.4636 32.7804C89.1707 33.6289 90.4318 33.7436 91.2804 33.0364L88.7196 29.9636ZM93.2351 24.9405L91.2948 25.4256L93.2351 24.9405ZM83.423 27.0494L83.9745 25.1193L80.1284 24.0205L79.577 25.9506L83.423 27.0494ZM85.0687 23.2597L85.1913 23.1371L82.3629 20.3087L82.2403 20.4313L85.0687 23.2597ZM87.9366 22H88.3684V18H87.9366V22ZM90.9405 24.0082L91.2948 25.4256L95.1754 24.4554L94.8211 23.0381L90.9405 24.0082ZM90.2222 28.7114L88.7196 29.9636L91.2804 33.0364L92.7829 31.7843L90.2222 28.7114ZM91.3477 26.7485C91.2197 27.5165 90.8203 28.213 90.2222 28.7114L92.7829 31.7843C94.117 30.6726 95.0078 29.119 95.2932 27.4061L91.3477 26.7485ZM91.2948 25.4256C91.403 25.8582 91.421 26.3085 91.3477 26.7485L95.2932 27.4061C95.4568 26.4248 95.4167 25.4205 95.1754 24.4554L91.2948 25.4256ZM90.0246 22.581C90.4779 22.9436 90.7997 23.445 90.9405 24.0082L94.8211 23.0381C94.4678 21.6252 93.6607 20.3673 92.5234 19.4575L90.0246 22.581ZM88.3684 22C88.9705 22 89.5545 22.2049 90.0246 22.581L92.5234 19.4575C91.3441 18.514 89.8787 18 88.3684 18V22ZM85.1913 23.1371C85.9194 22.409 86.9069 22 87.9366 22V18C85.846 18 83.8411 18.8305 82.3629 20.3087L85.1913 23.1371ZM83.9745 25.1193C84.1753 24.4166 84.5519 23.7765 85.0687 23.2597L82.2403 20.4313C81.2428 21.4288 80.516 22.6641 80.1284 24.0205L83.9745 25.1193Z" fill="#26280D"/>
<path d="M110.5 75L111.914 76.4142L111.945 76.3835L111.974 76.3514L110.5 75ZM108.586 82.0858C107.805 82.8668 107.805 84.1332 108.586 84.9142C109.367 85.6953 110.633 85.6953 111.414 84.9142L108.586 82.0858ZM120.914 72.5858L119.5 71.1716L120.914 72.5858ZM125.193 52.9508L123.891 54.4693L125.193 52.9508ZM125.062 52.8391L126.364 51.3206L125.062 52.8391ZM118.94 53.0298L117.546 51.5952L118.94 53.0298ZM90.8791 94.1096L90.5316 92.14L90.8791 94.1096ZM91.9458 93.5542L90.5316 92.14L91.9458 93.5542ZM85.3602 87.1192L83.9073 85.7448L85.3602 87.1192ZM84.8729 88.0085L86.8132 88.4936L84.8729 88.0085ZM102.033 31.6347L100.033 31.6597L102.033 31.6347ZM83.0748 95.201L81.1345 94.7159L83.0748 95.201ZM83.3035 95.4464L83.6511 97.416L83.3035 95.4464ZM100.033 31.6597L100.5 69.025L104.5 68.975L104.033 31.6097L100.033 31.6597ZM101.047 67.6256L83.9073 85.7448L86.8132 88.4936L103.953 70.3744L101.047 67.6256ZM82.9326 87.5235L81.1345 94.7159L85.015 95.686L86.8132 88.4936L82.9326 87.5235ZM111.7 73.4L103.7 67.4L101.3 70.6L109.3 76.6L111.7 73.4ZM83.6511 97.416L91.2267 96.0791L90.5316 92.14L82.956 93.4769L83.6511 97.416ZM123.761 54.3576L123.891 54.4693L126.494 51.4323L126.364 51.3206L123.761 54.3576ZM123.935 58.1176L120.162 61.5134L122.838 64.4866L126.611 61.0908L123.935 58.1176ZM103.894 70.4346L116.394 58.2917L113.606 55.4226L101.106 67.5654L103.894 70.4346ZM116.394 58.2917L120.333 54.4644L117.546 51.5952L113.606 55.4226L116.394 58.2917ZM122.874 61.5464L116.374 55.4036L113.626 58.3107L120.126 64.4536L122.874 61.5464ZM119.5 63V71.1716H123.5V63H119.5ZM119.5 71.1716L108.586 82.0858L111.414 84.9142L122.328 74L119.5 71.1716ZM111.974 76.3514L122.974 64.3514L120.026 61.6486L109.026 73.6486L111.974 76.3514ZM93.36 94.9684L103.914 84.4142L101.086 81.5858L90.5316 92.14L93.36 94.9684ZM103.914 84.4142L111.914 76.4142L109.086 73.5858L101.086 81.5858L103.914 84.4142ZM100.5 83V110.771H104.5V83H100.5ZM96.271 115H40.046V119H96.271V115ZM35 109.954V31.2026H31V109.954H35ZM37.7026 28.5H41.5V24.5H37.7026V28.5ZM41.5 28.5H96.8337V24.5H41.5V28.5ZM60.5 53.5H92.5V49.5H60.5V53.5ZM60.5 71H92.5V67H60.5V71ZM60.5 89.5H77.5V85.5H60.5V89.5ZM60.5 107H92.5V103H60.5V107ZM35 31.2026C35 30.4005 35.3563 29.6399 35.9724 29.1264L33.4117 26.0535C31.8836 27.327 31 29.2134 31 31.2026H35ZM36.3702 113.411C35.49 112.475 35 111.239 35 109.954H31C31 112.257 31.8785 114.474 33.4563 116.151L36.3702 113.411ZM40.046 115C38.654 115 37.3238 114.425 36.3702 113.411L33.4563 116.151C35.1659 117.969 37.5505 119 40.046 119V115ZM99.7268 113.209C98.9345 114.332 97.6456 115 96.271 115V119C98.9458 119 101.454 117.7 102.996 115.514L99.7268 113.209ZM100.5 110.771C100.5 111.644 100.23 112.495 99.7268 113.209L102.996 115.514C103.974 114.126 104.5 112.469 104.5 110.771H100.5ZM119.5 71.1716L119.5 71.1716L122.328 74C123.079 73.2499 123.5 72.2324 123.5 71.1716H119.5ZM123.891 54.4693C124.51 54.9997 124.821 55.8053 124.72 56.614L128.689 57.1102C128.957 54.9691 128.132 52.8365 126.494 51.4323L123.891 54.4693ZM121.746 53.7709C122.471 53.6674 123.205 53.8812 123.761 54.3576L126.364 51.3206C124.934 50.0948 123.045 49.5447 121.18 49.8111L121.746 53.7709ZM121.18 49.8111C119.811 50.0067 118.539 50.6313 117.546 51.5952L120.333 54.4644C120.719 54.0897 121.214 53.8469 121.746 53.7709L121.18 49.8111ZM91.2267 96.0791C92.0349 95.9365 92.7797 95.5487 93.36 94.9684L90.5316 92.14L90.5316 92.14L91.2267 96.0791ZM83.9073 85.7448C83.435 86.2441 83.0993 86.8567 82.9326 87.5235L86.8132 88.4936L86.8132 88.4936L83.9073 85.7448ZM98.6935 29.096C99.5228 29.6884 100.02 30.6405 100.033 31.6597L104.033 31.6097C104.004 29.3164 102.885 27.1741 101.018 25.8411L98.6935 29.096ZM101.018 25.8411C99.7973 24.9689 98.3343 24.5 96.8337 24.5V28.5C97.5006 28.5 98.1508 28.7084 98.6935 29.096L101.018 25.8411ZM81.1345 94.7159C80.748 96.2617 82.082 97.6929 83.6511 97.416L82.956 93.4769C84.2398 93.2503 85.3312 94.4213 85.015 95.686L81.1345 94.7159ZM124.72 56.614C124.648 57.1933 124.369 57.7271 123.935 58.1176L126.611 61.0908C127.76 60.0569 128.498 58.6437 128.689 57.1102L124.72 56.614ZM35.9724 29.1264C36.4581 28.7217 37.0703 28.5 37.7026 28.5V24.5C36.1346 24.5 34.6162 25.0497 33.4117 26.0535L35.9724 29.1264Z" fill="#26280D"/>
<path d="M42 48L45.5 52L52.5 43.5" stroke="#26280D" stroke-width="4"/>
<path d="M42.5 65.5L46 69.5L53 61" stroke="#26280D" stroke-width="4"/>
<path d="M42.5 83.5L46 87.5L53 79" stroke="#26280D" stroke-width="4"/>
<path d="M42.5 101.5L46 105.5L53 97" stroke="#26280D" stroke-width="4"/>
</g>
<defs>
<filter id="filter0_d_15_32" x="27" y="18" width="105.739" height="109" filterUnits="userSpaceOnUse" color-interpolation-filters="sRGB">
<feFlood flood-opacity="0" result="BackgroundImageFix"/>
<feColorMatrix in="SourceAlpha" type="matrix" values="0 0 0 0 0 0 0 0 0 0 0 0 0 0 0 0 0 0 127 0" result="hardAlpha"/>
<feOffset dy="4"/>
<feGaussianBlur stdDeviation="2"/>
<feComposite in2="hardAlpha" operator="out"/>
<feColorMatrix type="matrix" values="0 0 0 0 0 0 0 0 0 0 0 0 0 0 0 0 0 0 0.25 0"/>
<feBlend mode="normal" in2="BackgroundImageFix" result="effect1_dropShadow_15_32"/>
<feBlend mode="normal" in="SourceGraphic" in2="effect1_dropShadow_15_32" result="shape"/>
</filter>
</defs>
</svg>
